<svg xmlns="http://www.w3.org/2000/svg" viewBox="0 0 45 45"><title>kr</title><circle cx="22.5" cy="22.5" r="22.5" fill="#fff"/><path d="M5,13.1A21,21,0,0,1,13.1,5" transform="translate(0 0)" fill="none" stroke="#2d2e30" stroke-linecap="round" stroke-width="2"/><path d="M7.2,14.4a17.82,17.82,0,0,1,7.2-7.2" transform="translate(0 0)" fill="none" stroke="#2d2e30" stroke-linecap="round" stroke-width="2"/><path d="M9.5,15.9a15.2,15.2,0,0,1,6.4-6.4" transform="translate(0 0)" fill="none" stroke="#2d2e30" stroke-linecap="round" stroke-width="2"/><path d="M31.9,5a27.15,27.15,0,0,1,3.5,2.4m2.2,2.1A19.8,19.8,0,0,1,40,13" transform="translate(0 0)" fill="none" stroke="#2d2e30" stroke-linecap="round" stroke-width="2"/><path d="M30.5,7.2a17.82,17.82,0,0,1,7.2,7.2" transform="translate(0 0)" fill="none" stroke="#2d2e30" stroke-linecap="round" stroke-width="2"/><path d="M29.1,9.5a23.26,23.26,0,0,1,2.6,1.7m2.1,2.1a14.52,14.52,0,0,1,1.7,2.6" transform="translate(0 0)" fill="none" stroke="#2d2e30" stroke-linecap="round" stroke-width="2"/><path d="M40,31.9a27.14,27.14,0,0,1-2.4,3.5m-2.2,2.2A26.16,26.16,0,0,1,32,40" transform="translate(0 0)" fill="none" stroke="#2d2e30" stroke-linecap="round" stroke-width="2"/><path d="M37.8,30.5a21.12,21.12,0,0,1-2.1,3.1m-2.1,2a21.12,21.12,0,0,1-3.1,2.1" transform="translate(0 0)" fill="none" stroke="#2d2e30" stroke-linecap="round" stroke-width="2"/><path d="M35.5,29.1a23.27,23.27,0,0,1-1.7,2.6m-2.1,2.1a14.52,14.52,0,0,1-2.6,1.7" transform="translate(0 0)" fill="none" stroke="#2d2e30" stroke-linecap="round" stroke-width="2"/><path d="M13.1,40A21,21,0,0,1,5,31.9" transform="translate(0 0)" fill="none" stroke="#2d2e30" stroke-linecap="round" stroke-width="2"/><path d="M14.5,37.8a16.1,16.1,0,0,1-3-2.1M9.3,33.6a16.88,16.88,0,0,1-2.1-3.1" transform="translate(0 0)" fill="none" stroke="#2d2e30" stroke-linecap="round" stroke-width="2"/><path d="M15.9,35.5a15.2,15.2,0,0,1-6.4-6.4" transform="translate(0 0)" fill="none" stroke="#2d2e30" stroke-linecap="round" stroke-width="2"/><path d="M22.5,13.3a9.18,9.18,0,0,1,9.2,9.16s0,0,0,0H13.2A9.33,9.33,0,0,1,22.5,13.3Z" transform="translate(0 0)" fill="#ff0f00"/><path d="M22.4,31.7a9.18,9.18,0,0,1-9.2-9.16s0,0,0,0H31.7A9.33,9.33,0,0,1,22.4,31.7Z" transform="translate(0 0)" fill="#0089de"/><path d="M27.1,17.9a4.6,4.6,0,0,1,0,9.2h0a4.59,4.59,0,0,1-4.6-4.58s0,0,0,0A4.65,4.65,0,0,1,27.1,17.9Z" transform="translate(0 0)" fill="#52a1d3"/><path d="M17.85,17.9a4.6,4.6,0,1,1-4.65,4.6,4.63,4.63,0,0,1,4.65-4.6h0Z" transform="translate(0 0)" fill="#ff1300"/></svg>