<?xml version="1.0" encoding="UTF-8" standalone="no"?>
<svg width="249px" height="235px" viewBox="0 0 249 235" version="1.1" xmlns="http://www.w3.org/2000/svg" xmlns:xlink="http://www.w3.org/1999/xlink">
    <!-- Generator: Sketch 39 (31667) - http://www.bohemiancoding.com/sketch -->
    <title>use</title>
    <desc>Created with Sketch.</desc>
    <defs></defs>
    <g id="Page-1" stroke="none" stroke-width="1" fill="none" fill-rule="evenodd">
        <g id="use" fill="#000000">
            <path d="M9.954,234.305 L238.395,234.305 C241.446,234.305 244.291,233.059 246.2,230.889 C247.859,229.007 248.593,226.619 248.278,224.166 C242.921,182.432 217.259,147.655 182.128,129.113 C167.279,143.962 146.78,153.159 124.175,153.159 C101.57,153.159 81.07,143.962 66.222,129.113 C31.09,147.65 5.423,182.432 0.071,224.166 C-0.244,226.619 0.495,229.012 2.149,230.889 C4.058,233.059 6.903,234.305 9.954,234.305 L9.954,234.305 Z" id="Shape"></path>
            <path d="M72.699,120.09 C74.032,121.488 75.424,122.82 76.865,124.109 C89.451,135.368 106.002,142.275 124.174,142.275 C142.346,142.275 158.897,135.362 171.483,124.109 C172.924,122.82 174.317,121.487 175.649,120.09 C176.976,118.692 178.271,117.262 179.489,115.761 C189.35,103.55 195.289,88.044 195.289,71.161 C195.289,31.945 163.383,0.045 124.173,0.045 C84.963,0.045 53.059,31.95 53.059,71.16 C53.059,88.043 58.998,103.55 68.859,115.76 C70.072,117.262 71.366,118.687 72.699,120.09 L72.699,120.09 Z" id="Shape"></path>
        </g>
    </g>
</svg>